{"title":"Season of the Witch (2011) DVDRip XviD-MAX","uid":6244549,"size":1313967978,"categoryP":"video","categoryS":"movies","magnet":"?xt=urn:btih:a5d630fe9af0d9304ccf7d7223e19068d4bb3505&amp;dn=Season+of+the+Witch+%282011%29+DVDRip+XviD-MAX&amp;tr=udp%3A%2F%2Ftracker.openbittorrent.com%3A80&amp;tr=udp%3A%2F%2Fopen.demonii.com%3A1337&amp;tr=udp%3A%2F%2Ftracker.coppersurfer.tk%3A6969&amp;tr=udp%3A%2F%2Fexodus.desync.com%3A6969","seeders":18,"leechers":3,"uploader":"extremezone","files":-1,"time":1300190213,"description":" &lt;a href=&quot;http://leetleech.org/images/40732626979662390825.jpg&quot; rel=&quot;nofollow&quot; target=&quot;_NEW&quot;&gt;http://leetleech.org/images/40732626979662390825.jpg&lt;/a&gt;\n\nScreens:\n &lt;a href=&quot;\nhttp://leetleech.org/images/61945006939952378975.jpg&quot; rel=&quot;nofollow&quot; target=&quot;_NEW&quot;&gt;\nhttp://leetleech.org/images/61945006939952378975.jpg&lt;/a&gt;\n &lt;a href=&quot;\nhttp://leetleech.org/images/27107891302873414195.jpg&quot; rel=&quot;nofollow&quot; target=&quot;_NEW&quot;&gt;\nhttp://leetleech.org/images/27107891302873414195.jpg&lt;/a&gt;\n &lt;a href=&quot;\nhttp://leetleech.org/images/96217674655561118649.jpg&quot; rel=&quot;nofollow&quot; target=&quot;_NEW&quot;&gt;\nhttp://leetleech.org/images/96217674655561118649.jpg&lt;/a&gt;\n &lt;a href=&quot;\nhttp://leetleech.org/images/13742688490761392918.jpg&quot; rel=&quot;nofollow&quot; target=&quot;_NEW&quot;&gt;\nhttp://leetleech.org/images/13742688490761392918.jpg&lt;/a&gt;\n\nAlternative:\n &lt;a href=&quot;\nhttp://www.postimg.com/image/31000/photo-30385.jpg&quot; rel=&quot;nofollow&quot; target=&quot;_NEW&quot;&gt;\nhttp://www.postimg.com/image/31000/photo-30385.jpg&lt;/a&gt;\n &lt;a href=&quot;\nhttp://www.postimg.com/image/31000/photo-30382.jpg&quot; rel=&quot;nofollow&quot; target=&quot;_NEW&quot;&gt;\nhttp://www.postimg.com/image/31000/photo-30382.jpg&lt;/a&gt;\n &lt;a href=&quot;\nhttp://www.postimg.com/image/31000/photo-30383.jpg&quot; rel=&quot;nofollow&quot; target=&quot;_NEW&quot;&gt;\nhttp://www.postimg.com/image/31000/photo-30383.jpg&lt;/a&gt;\n &lt;a href=&quot;\nhttp://www.postimg.com/image/31000/photo-30384.jpg&quot; rel=&quot;nofollow&quot; target=&quot;_NEW&quot;&gt;\nhttp://www.postimg.com/image/31000/photo-30384.jpg&lt;/a&gt;\n\nScreenCaps:\n &lt;a href=&quot;\nhttp://www.postimg.com/image/31000/photo-30391.jpg&quot; rel=&quot;nofollow&quot; target=&quot;_NEW&quot;&gt;\nhttp://www.postimg.com/image/31000/photo-30391.jpg&lt;/a&gt;\n\nSeason of the Witch (2011) DVDRip XviD-MAX\n\nFormat                           : AVI\nFormat/Info                      : Audio Video Interleave\nFormat profile                   : OpenDML\nFile size                        : 1.20 GiB\nDuration                         : 1h 34mn\nOverall bit rate                 : 1 824 Kbps\nWriting application              : VirtualDubMod 1.5.10.2 (build 2542/release)\nWriting library                  : VirtualDubMod build 2542/release\nOriginal source form             : MAX TORRENTZ\nCopyright                        : SIGISMUNT\n\nVideo\nID                               : 0\nFormat                           : MPEG-4 Visual\nFormat profile                   : AdvancedSimple@L5\nFormat settings, BVOP            : Yes\nFormat settings, QPel            : No\nFormat settings, GMC             : No warppoints\nFormat settings, Matrix          : Custom\nCodec ID                         : XVID\nCodec ID/Hint                    : XviD\nDuration                         : 1h 34mn\nBit rate                         : 1 629 Kbps\nWidth                            : 720 pixels\nHeight                           : 400 pixels\nDisplay aspect ratio             : 16:9\nFrame rate                       : 23.976 fps\nOriginal frame rate              : 25.000 fps\nResolution                       : 24 bits\nColorimetry                      : 4:2:0\nScan type                        : Progressive\nBits/(Pixel*Frame)               : 0.236\nStream size                      : 1.08 GiB (89%)\nWriting library                  : XviD 58\n\nAudio\nID                               : 1\nFormat                           : MPEG Audio\nFormat version                   : Version 1\nFormat profile                   : Layer 3\nCodec ID                         : 55\nCodec ID/Hint                    : MP3\nDuration                         : 1h 34mn\nBit rate mode                    : Constant\nBit rate                         : 192 Kbps\nChannel(s)                       : 2 channels\nSampling rate                    : 48.0 KHz\nResolution                       : 16 bits\nStream size                      : 130 MiB (11%)\nAlignment                        : Aligned on interleaves\nInterleave, duration             : 489 ms (11.73 video frames)\nInterleave, preload duration     : 216 ms\n \nSource: Original DVD (no crop or hardcoded subs,perfect a/v/sync quality,sample included)\n\nNote:If you have something to offer as early releases,seedboxes,\nlinks,accounts,etc please contact us on torentz 3xforum ro\n &lt;a href=&quot;\nhttp://www.imdb.com/title/tt0479997/&quot; rel=&quot;nofollow&quot; target=&quot;_NEW&quot;&gt;\nhttp://www.imdb.com/title/tt0479997/&lt;/a&gt;\n\nSeason of the Witch (2011) DVDRip XviD-MAX Torrent Free Download\n &lt;a href=&quot;\nhttp://thepiratebay.se/user/extremezone/0/7&quot; rel=&quot;nofollow&quot; target=&quot;_NEW&quot;&gt;\nhttp://thepiratebay.se/user/extremezone/0/7&lt;/a&gt;\n\nHow To Get Your Maxspeed (uTorrent)\n\nTorrent Client - Preferences - Bandwidth - Number of connections - Set aprox. 500 for each \nTorrent Client - Preferences - BiTorrent - Protocol Encryption - Forced\nBandwidth Allocation - High (Set download/upload limit - Unlimited)\nStop Other Active Torrents - Start downloading and wait for connections.\nEnjoy and Seed for at least 1:1 ratio. Don't forget to say thanks/leave reviews.\nBefore downloading you should check/google search sample &quot;release name&quot;&quot;sample&quot;.\nGreets to all actual/future p2p/scene QUALITY groups and affiliate websites.\nDon't trust IMDb robot or bad ratings,always watch some trailers first.\nIgnore stupid comments/fake/mislabeled/no-DVDrips/CAM/TS/RAR uploads.\nPlease spread this release/torrent to your friends/forums/etc.\nIf you need translation subs visit some subtitles sites.\nReport if you see online streaming or other spam links.\nRecommended movie player VLC PLAYER.","torrent":{"xt":"urn:btih:a5d630fe9af0d9304ccf7d7223e19068d4bb3505","amp;dn":"Season+of+the+Witch+%282011%29+DVDRip+XviD-MAX","amp;tr":["udp%3A%2F%2Ftracker.openbittorrent.com%3A80","udp%3A%2F%2Fopen.demonii.com%3A1337","udp%3A%2F%2Ftracker.coppersurfer.tk%3A6969","udp%3A%2F%2Fexodus.desync.com%3A6969"],"infoHash":"a5d630fe9af0d9304ccf7d7223e19068d4bb3505","infoHashBuffer":{"type":"Buffer","data":[165,214,48,254,154,240,217,48,76,207,125,114,35,225,144,104,212,187,53,5]},"announce":[],"urlList":[]}}